# xmcd
#
# Track frame offsets:
#	150
#	13407
#	24774
#	42582
#	68151
#	86862
#	99741
#	110541
#	122691
#	134598
#	149799
#	168340
#	192136
#	205420
#	217813
#
# Disc length: 3056 seconds
#
# Revision: 0
# Processed by: cddbd v1.5.2PL0 Copyright (c) Steve Scherf et al.
# Submitted via: audiograbber 1.83.01
#
DISCID=e30bee0f
DTITLE=Ñáîðíèê - Love Songs - The Romantic Essentials CD2
DYEAR=1900
DGENRE=
TTITLE0=Carly Simon - The Right Thing To Do
TTITLE1=Otis Redding - The Dock Of The Bay
TTITLE2=George Benson - I´ll Keep Your Dreams Alive
TTITLE3=Gloria Gaynor - Careless Whisper
TTITLE4=Boy George - Fear Not The Sword My Son
TTITLE5=Katrina and The Waves - Love Shine A Light
TTITLE6=Jim Croce - Time In A Bottle
TTITLE7=Donovan - Colours
TTITLE8=Harry Nilson - Everybody Is Talking
TTITLE9=Tha Mamas And The Papas - Dedicated To The One I Love
TTITLE10=Stephen Bishop - It Might Be You
TTITLE11=Kool and The Gang - Cherish
TTITLE12=Ben E. King - Stand By Me
TTITLE13=The Platters - Only You ( And You Alone)
TTITLE14=Paul Anka - Put Your Head On My Shoulder
EXTD=
EXTT0=
EXTT1=
EXTT2=
EXTT3=
EXTT4=
EXTT5=
EXTT6=
EXTT7=
EXTT8=
EXTT9=
EXTT10=
EXTT11=
EXTT12=
EXTT13=
EXTT14=
PLAYORDER=
